<svg version="1.2" xmlns="http://www.w3.org/2000/svg" viewBox="0 0 299 299" width="75" height="75">
	<title>binomial-probability</title>
	<style>
		.s0 { fill: #ffffff } 
		.s1 { fill: #000000 } 
		.s2 { fill: #0096e6 } 
		.s3 { fill: #d0e8f9 } 
	</style>
	<g>
		<path class="s0" d="m288.4 127.1c0 36.1-61.1 65.7-136.1 65.7-75.1 0-136.2-29.6-136.2-65.7 0-36.1 61.1-65.7 136.2-65.7 75 0 136.1 29.6 136.1 65.7z"/>
		<path class="s1" d="m152.3 197.5c-78.9 0-140.9-31-140.9-70.4 0-39.4 62-70.4 140.8-70.4 78.9 0 140.8 31 140.8 70.4 0 39.4-61.9 70.4-140.8 70.4zm0-131.4c-71.3 0-131.4 28.1-131.4 61 0 32.8 60.1 61 131.4 61 71.4 0 131.5-28.2 131.5-61 0-32.9-60.1-61-131.5-61z"/>
		<path class="s0" d="m152.3 174c-71.9 0-117.4-27.7-117.4-46.9 0-19.3 45.5-46.9 117.3-46.9 71.9 0 117.4 27.6 117.4 46.9 0 19.2-45.5 46.9-117.4 46.9z"/>
		<path class="s2" d="m152.3 178.7c-70 0-122.1-27.2-122.1-51.6 0-24.4 52.1-51.6 122-51.6 70 0 122.1 27.2 122.1 51.6 0 24.4-52.1 51.6-122.1 51.6zm0-93.8c-69.9 0-112.6 27.2-112.6 42.2 0 15 42.7 42.2 112.6 42.2 70 0 112.7-27.2 112.7-42.2 0-15-42.7-42.2-112.7-42.2z"/>
		<path class="s0" d="m152.3 192.8c-75.1 0-136.2-29.6-136.2-65.7v42.2c0 36.2 61.1 65.7 136.1 65.7 75.1 0 136.2-29.5 136.2-65.7v-42.2c0 36.1-61.1 65.7-136.2 65.7z"/>
		<g>
			<path class="s1" d="m152.3 239.7c-78.9 0-140.9-30.9-140.9-70.4v-42.2h9.4c0 32.8 60.1 61 131.4 61 71.4 0 131.5-28.2 131.5-61h9.3v42.2c0 39.5-61.9 70.4-140.8 70.4zm-131.4-86.8v16.4c0 32.9 60.1 61 131.4 61 71.4 0 131.5-28.1 131.5-61v-16.4c-20.2 26.3-70.9 44.6-131.5 44.6-60.5 0-111.2-18.3-131.4-44.6z"/>
			<path class="s1" d="m166.3 239.3c-2.8 0-4.7-1.9-4.7-4.7v-42.3c0-2.8 1.9-4.7 4.7-4.7 2.8 0 4.7 1.9 4.7 4.7v42.3c0 2.8-1.9 4.7-4.7 4.7zm-28.1 0c-2.8 0-4.7-1.9-4.7-4.7v-42.3c0-2.8 1.9-4.7 4.7-4.7 2.8 0 4.7 1.9 4.7 4.7v42.3c0 2.8-1.9 4.7-4.7 4.7zm51.6-1.9c-2.8 0-4.7-1.9-4.7-4.7v-42.2c0-2.9 1.9-4.7 4.7-4.7 2.8 0 4.7 1.8 4.7 4.7v42.2c0 2.3-1.9 4.7-4.7 4.7zm-75.1 0c-2.8 0-4.7-1.9-4.7-4.7v-42.2c0-2.9 1.9-4.7 4.7-4.7 2.8 0 4.7 1.8 4.7 4.7v42.2c0 2.3-1.9 4.7-4.7 4.7zm98.6-4.7c-2.9 0-4.7-1.9-4.7-4.7v-42.2c0-2.9 1.8-4.7 4.7-4.7 2.8 0 4.7 1.8 4.7 4.7v42.2c0 2.8-1.9 4.7-4.7 4.7zm-122.1 0c-2.8 0-4.7-1.9-4.7-4.7v-42.2c0-2.9 1.9-4.7 4.7-4.7 2.9 0 4.7 1.8 4.7 4.7v42.2c0 2.8-1.8 4.7-4.7 4.7zm140.8-5.6c-2.8 0-4.7-1.9-4.7-4.7v-42.3c0-2.8 1.9-4.7 4.7-4.7 2.9 0 4.7 1.9 4.7 4.7v42.3c0 2.8-1.8 4.7-4.7 4.7zm-159.5 0c-2.9 0-4.7-1.9-4.7-4.7v-42.3c0-2.8 1.8-4.7 4.7-4.7 2.8 0 4.7 1.9 4.7 4.7v42.3c0 2.8-1.9 4.7-4.7 4.7zm178.3-8c-2.8 0-4.7-1.9-4.7-4.7v-42.3c0-2.8 1.9-4.6 4.7-4.6 2.8 0 4.7 1.8 4.7 4.6v42.3c0 2.8-1.9 4.7-4.7 4.7zm-197.1 0c-2.8 0-4.7-1.9-4.7-4.7v-42.3c0-2.8 1.9-4.6 4.7-4.6 2.8 0 4.7 1.8 4.7 4.6v42.3c0 2.8-1.9 4.7-4.7 4.7zm215.9-11.8c-2.8 0-4.7-1.8-4.7-4.6v-42.3c0-2.8 1.9-4.7 4.7-4.7 2.8 0 4.7 1.9 4.7 4.7v42.3c0 2.3-1.9 4.6-4.7 4.6zm-234.7 0c-2.8 0-4.7-1.8-4.7-4.6v-42.3c0-2.8 1.9-4.7 4.7-4.7 2.8 0 4.7 1.9 4.7 4.7v42.3c0 2.3-1.9 4.6-4.7 4.6z"/>
		</g>
		<path class="s3" d="m192.1 130.4c4.7-1 7.6-3.8 6.6-7.1l-0.9-3.2c-1-2.9-3.8-4.7-7.5-5.7-5.2-10.8-18.3-15-37.6-15q-1.4 0-2.8 0c-6.6 0.5-13.1-0.5-18.3-2.3-1.9-1-3.8-1.5-5.2-2.4-0.4-0.5-1.8 0-1.8 0.5 0 0.9 0 1.9 0.4 2.8 1 4.2 0 3.7-4.2 8q-3.5 3.5-5.6 8.4c-3.8 1-7.1 3.3-7.5 5.6l-1 3.3c-0.9 3.3 1.9 6.1 6.6 7.1 1.4 8.4 7 15.9 19.7 19.7l-0.5 6.1c0 1.4-1.4 2.8-3.7 3.7l-25.4 9c13.7 3.2 30.5 5.1 48.9 5.1 18.3 0 34.7-1.9 49.2-4.7l-24.4-9.4c-1.9-0.9-3.3-2.3-3.3-3.7l-0.9-5.6c12.2-4.3 18.3-11.8 19.2-20.2z"/>
		<g>
			<path class="s1" d="m152.3 178.7c-17.9 0-34.8-1.9-50.7-5.1l-16.5-3.3 40.9-14.6c0.4 0 0.4 0 0.4-0.4v-1.9c-11.7-4.7-16.4-12.7-18.3-19.3-2.8-0.9-4.7-2.8-6.1-4.7-1.4-2.3-1.4-4.7-0.9-7.5l0.9-3.3c1-3.2 4.3-6.5 8.9-8.4 1.5-2.8 3.3-5.6 5.7-8 0.9-0.9 1.9-1.9 2.3-2.3 0.5 0 0.5-0.5 0.5-0.5 0 0 0-0.5 0-0.9 0-1.4-0.5-2.9-0.5-3.8 0-1.9 1-3.7 2.8-4.7 1.9-0.9 4.3-0.9 6.6 0.5 0.5 0.5 1.4 0.9 3.8 1.9 4.2 1.4 10.3 2.3 16.4 1.8q1.4 0 2.8 0c14.1 0 32.9 1.9 40.8 16 4.7 1.9 8 4.7 9 8.4l0.9 3.3c0.9 2.4 0.5 5.2-0.9 7.5-1.4 2.4-3.3 3.8-6.1 4.7-1.9 6.6-6.6 14.6-18.3 19.3v1.9c0 0 0.4 0 0.4 0.4l39.9 15-14.5 3.3c-16 2.8-32.9 4.7-50.3 4.7zm-31.4-11.2c20.2 2.3 42.2 2.3 62.4 0l-8-2.9c-3.7-1.4-6.1-4.2-6.5-7.5l-1-9.8 3.8-1.4c9.8-3.3 15-8.5 16.4-16l0.5-3.3 3.3-0.4c1.9-0.5 2.8-1.5 2.8-1.5l-0.9-3.2c0-0.5-1.5-1.9-4.3-2.9l-2.8-0.9-0.9-1.9c-3.8-8.4-14.6-12.2-33.4-12.2-0.9 0-1.8 0-2.3 0-5.6 0-13.6 0-20.2-2.3-0.4 2.3-1.4 3.7-3.7 5.6-0.5 0.5-1.4 1.4-2.4 1.9-1.9 1.9-3.7 4.2-4.7 7l-0.9 1.9-1.9 0.5c-2.8 0.9-4.2 2.3-4.2 2.8l-1.9 3.7c0 0 0.9 1 2.8 1.5l3.3 0.4 0.5 3.3c1.4 7.5 6.6 13.1 16.4 16l3.8 1.4-1 9.8c-0.4 3.3-2.8 6.1-6.5 7.5z"/>
			<path class="s1" d="m222.2 296.1c-9.9-0.1-24.4-5.2-36.6-31-1-2.4 0-5.2 2.3-6.1 2.4-1 5.2 0 6.1 2.3 8 16.4 17.9 25.4 28.2 25.4 14.5 0 24.4-14.1 30.5-28.2h-16.4c-2.9 0-4.7-1.9-4.7-4.7 0-2.8 1.8-4.7 4.7-4.7h23c0 0 0 0 0.4 0 0.5 0 1.4 0 1.9 0.5 0.5 0.5 0.9 0.5 1.4 1.4l14.1 18.8c1.4 1.8 0.9 5.1-0.9 6.5-1.9 1.4-5.2 1-6.6-0.9l-9.4-12.2c-11.3 26.7-26.8 32.8-38 32.8zm-182.1-234.6c-1 0-1.4 0-1.9-0.5-0.9-0.5-1.4-0.5-1.9-1.4l-14.1-18.8c-1.4-1.8-0.9-5.1 1-6.5 1.9-1.4 5.1-1 6.6 0.9l9.3 12.2c11.8-26.7 27.3-32.9 38.5-32.9 9.9 0 24 5.2 36.6 31 1 2.4 0 5.2-2.3 6.1-2.4 1-5.2 0-6.1-2.3-8-16.4-17.8-25.4-28.2-25.4-14.5 0-24.4 14.1-30.5 28.2h16.4c2.9 0 4.7 1.9 4.7 4.7 0 2.8-1.8 4.7-4.7 4.7z"/>
		</g>
	</g>
</svg>